<svg xmlns="http://www.w3.org/2000/svg" viewBox="0 0 900 900">
  <title>"St. Spyridon, Wonderworker of Trimitunt" Foundation's logo</title>
  <g id="elipse">
    <circle fill="#ffe8cc" cx="450.06" cy="450" r="449.94" />
  </g>
  <g id="pwa" fill="none" stroke="#3e2723" stroke-linecap="round" stroke-linejoin="round" stroke-width="34px"
    stroke-miterlimit="10">
    <path class="cls-2"
      d="M683.56,431.12V645.88H216.44V438.59c0-105.59,105.87-191,236.7-191h-6.28c130.83,0,236.7,85.44,236.7,191" />
    <path class="cls-3"
      d="M301.7,484.58h7.08a44.47,44.47,0,0,1,44.47,44.47V641.21a4,4,0,0,1-4,4h-88.1a4,4,0,0,1-4-4V529.06A44.47,44.47,0,0,1,301.7,484.58Z" />
    <path class="cls-3"
      d="M549.15,484.58h88.1a4,4,0,0,1,4,4V600.7a44.47,44.47,0,0,1-44.47,44.47h-7.08a44.47,44.47,0,0,1-44.47-44.47V488.55a4,4,0,0,1,4-4Z"
      transform="translate(1186.41 1129.76) rotate(180)" />
    <rect class="cls-2" x="192.9" y="645.18" width="514.2" height="79.77" rx="0.81" ry="0.81" />
    <line class="cls-4" x1="450.03" y1="199.22" x2="450.03" y2="64.66" />
    <line class="cls-4" x1="402.25" y1="109.12" x2="497.84" y2="109.12" />
    <path class="cls-2"
      d="M500.69,246.83c2.83-15.9-18.16-47.61-50.71-47.61-33.07,0-54.17,32.7-50.52,48.33a275.51,275.51,0,0,1,101.23-.72Z" />
    <path class="cls-5" d="M683.59,446.72a110,110,0,0,0-155.7,0,110,110,0,0,0-155.7,0h-.06a110,110,0,0,0-155.7,0" />
    <path class="cls-3"
      d="M406,484.58h88.1a4,4,0,0,1,4,4V600.7a44.47,44.47,0,0,1-44.47,44.47h-7.08A44.47,44.47,0,0,1,402,600.7V488.55a4,4,0,0,1,4-4Z"
      transform="translate(900.09 1129.76) rotate(180)" />
  </g>
</svg>
